<svg xmlns="http://www.w3.org/2000/svg" viewBox="0 0 256 256"><rect width="256" height="256" rx="54" fill="#392d55"/><circle cx="48" cy="61" r="8" fill="#f3b6d2"/><circle cx="205" cy="83" r="5" fill="#f8dc9a"/><path d="M0 187c46-42 83-43 128-13 37 25 80 10 128-28v110H0z" fill="#6f5d9c"/><circle cx="128" cy="123" r="56" fill="#f9e5ed"/><path d="M75 108c9-37 32-53 54-53 30 0 48 18 53 53-28-16-77-16-107 0z" fill="#d28fb9"/><circle cx="106" cy="130" r="8" fill="#392d55"/><circle cx="150" cy="130" r="8" fill="#392d55"/><path d="M108 151c14 11 26 11 40 0" fill="none" stroke="#392d55" stroke-width="7" stroke-linecap="round"/><path d="M63 111 37 97M193 111l26-14" stroke="#f3b6d2" stroke-width="7" stroke-linecap="round"/></svg>
